<?xml version='1.0'?>
<!--
Bitly Generated QR Code
v5
37x37
-->
<svg width='720' height='720'
xmlns='http://www.w3.org/2000/svg'
xmlns:xlink='http://www.w3.org/1999/xlink'>
	<g id='background' style='fill:#ffffff' >
<rect x="0" y="0" width="720" height="720" />
</g>
<g id='pips' style='fill:#2a5bd7' >
<path d="M64,272L80,272L96,272L96,288L112,288L128,288L128,304L112,304L96,304L80,304L80,288L64,288L64,272M64,320L80,320L96,320L112,320L112,336L128,336L144,336L144,352L128,352L128,368L128,384L128,400L112,400L96,400L96,416L80,416L80,400L64,400L64,384L80,384L96,384L96,368L80,368L80,352L96,352L96,336L80,336L64,336L64,320M64,464L80,464L80,480L80,496L80,512L80,528L64,528L64,512L64,496L64,480L64,464M80,208L96,208L112,208L112,224L112,240L96,240L96,224L80,224L80,208M80,432L96,432L112,432L112,448L112,464L112,480L96,480L96,464L80,464L80,448L80,432M96,256L112,256L112,272L96,272L96,256M112,240L128,240L128,256L112,256L112,240M112,416L128,416L144,416L144,432L144,448L128,448L128,432L112,432L112,416M112,512L128,512L128,496L144,496L144,512L160,512L176,512L176,528L160,528L144,528L128,528L112,528L112,512M128,224L144,224L144,240L128,240L128,224M128,256L144,256L160,256L176,256L176,240L160,240L160,224L176,224L192,224L192,208L208,208L208,192L192,192L192,176L192,160L208,160L208,176L224,176L224,192L224,208L240,208L240,192L240,176L256,176L256,192L256,208L256,224L256,240L256,256L240,256L240,240L224,240L224,224L208,224L208,240L208,256L192,256L192,272L176,272L160,272L160,288L144,288L128,288L128,272L128,256M128,304L144,304L144,320L128,320L128,304M128,464L144,464L144,480L128,480L128,464M144,192L160,192L176,192L176,208L160,208L144,208L144,192M144,368L160,368L160,384L176,384L176,368L160,368L160,352L176,352L176,336L160,336L160,320L176,320L176,304L192,304L192,320L192,336L208,336L208,352L224,352L224,368L224,384L208,384L208,368L192,368L192,384L192,400L176,400L160,400L160,416L144,416L144,400L144,384L144,368M144,448L160,448L176,448L176,464L160,464L144,464L144,448M144,480L160,480L176,480L176,496L160,496L144,496L144,480M160,288L176,288L176,304L160,304L160,288M160,416L176,416L192,416L192,432L176,432L160,432L160,416M176,464L192,464L192,480L176,480L176,464M176,496L192,496L208,496L208,480L224,480L240,480L240,496L224,496L224,512L208,512L192,512L176,512L176,496M192,64L208,64L208,80L192,80L192,64M192,96L208,96L208,80L224,80L240,80L240,96L224,96L224,112L208,112L192,112L192,96M192,128L208,128L208,144L192,144L192,128M192,400L208,400L208,416L192,416L192,400M192,432L208,432L208,416L224,416L224,432L224,448L208,448L192,448L192,432M192,528L208,528L224,528L224,544L224,560L224,576L208,576L192,576L192,560L208,560L208,544L192,544L192,528M208,144L224,144L240,144L256,144L256,160L240,160L240,176L224,176L224,160L208,160L208,144M208,272L224,272L224,288L208,288L208,272M208,304L224,304L224,320L208,320L208,304M224,112L240,112L240,128L224,128L224,112M224,256L240,256L240,272L224,272L224,256M224,336L240,336L256,336L256,352L240,352L224,352L224,336M224,384L240,384L240,400L256,400L256,384L272,384L272,400L272,416L272,432L272,448L256,448L256,464L272,464L272,480L256,480L240,480L240,464L224,464L224,448L240,448L240,432L256,432L256,416L240,416L224,416L224,400L224,384M224,512L240,512L240,528L224,528L224,512M224,608L240,608L240,624L224,624L224,608M224,640L240,640L256,640L256,624L256,608L256,592L240,592L240,576L240,560L256,560L256,576L272,576L288,576L288,592L272,592L272,608L288,608L288,624L272,624L272,640L288,640L288,624L304,624L320,624L320,608L320,592L336,592L336,576L320,576L320,592L304,592L304,576L288,576L288,560L304,560L320,560L336,560L352,560L368,560L368,544L352,544L352,528L336,528L320,528L304,528L304,512L320,512L320,496L336,496L336,512L352,512L368,512L368,496L352,496L336,496L336,480L352,480L352,464L336,464L320,464L320,448L336,448L352,448L368,448L384,448L400,448L400,464L384,464L384,480L384,496L384,512L384,528L384,544L400,544L400,560L400,576L384,576L368,576L352,576L352,592L368,592L384,592L400,592L400,576L416,576L416,560L432,560L432,544L416,544L416,528L416,512L416,496L432,496L432,512L432,528L448,528L448,544L464,544L464,560L448,560L448,576L464,576L480,576L480,560L496,560L512,560L512,544L496,544L496,528L512,528L512,512L528,512L528,496L544,496L544,512L560,512L560,496L576,496L576,512L592,512L592,496L608,496L624,496L624,480L608,480L592,480L592,464L608,464L608,448L624,448L640,448L640,464L640,480L656,480L656,496L656,512L656,528L640,528L640,512L624,512L624,528L608,528L608,544L624,544L624,560L608,560L608,576L592,576L592,592L576,592L576,608L576,624L592,624L592,640L576,640L560,640L560,624L560,608L544,608L544,592L528,592L528,608L512,608L496,608L496,592L480,592L464,592L448,592L432,592L416,592L416,608L400,608L400,624L400,640L416,640L416,656L400,656L384,656L384,640L368,640L352,640L352,656L336,656L320,656L304,656L288,656L272,656L256,656L240,656L224,656L224,640M240,64L256,64L272,64L272,80L256,80L240,80L240,64M240,96L256,96L272,96L272,112L256,112L240,112L240,96M240,272L256,272L256,288L240,288L240,272M240,304L256,304L256,320L240,320L240,304M240,496L256,496L272,496L288,496L288,512L288,528L304,528L304,544L288,544L272,544L272,560L256,560L256,544L240,544L240,528L256,528L256,512L240,512L240,496M256,160L272,160L272,176L256,176L256,160M256,320L272,320L272,336L256,336L256,320M272,80L288,80L304,80L320,80L336,80L336,96L336,112L336,128L320,128L304,128L288,128L288,144L288,160L272,160L272,144L272,128L272,112L288,112L288,96L272,96L272,80M272,208L288,208L304,208L304,192L320,192L320,176L320,160L320,144L336,144L336,128L352,128L352,112L352,96L368,96L368,112L384,112L384,128L368,128L368,144L368,160L368,176L352,176L352,160L336,160L336,176L336,192L352,192L352,208L352,224L336,224L336,208L320,208L320,224L304,224L304,240L288,240L288,224L272,224L272,208M272,240L288,240L288,256L272,256L272,240M272,448L288,448L304,448L304,464L304,480L288,480L288,464L272,464L272,448M304,96L304,112L320,112L320,96L304,96M288,160L304,160L304,176L304,192L288,192L288,176L288,160M304,240L320,240L320,224L336,224L336,240L336,256L336,272L320,272L320,256L304,256L304,240M336,64L352,64L352,80L336,80L336,64M352,224L368,224L368,240L352,240L352,224M368,64L384,64L384,80L400,80L400,64L416,64L416,80L432,80L432,64L448,64L448,80L464,80L464,96L448,96L448,112L464,112L480,112L480,128L480,144L496,144L496,160L496,176L480,176L480,160L464,160L464,176L480,176L480,192L464,192L464,208L448,208L448,192L448,176L448,160L432,160L432,176L432,192L432,208L416,208L416,224L432,224L448,224L464,224L464,208L480,208L480,192L496,192L496,208L496,224L512,224L512,208L512,192L496,192L496,176L512,176L512,160L512,144L528,144L528,160L528,176L528,192L528,208L528,224L528,240L512,240L496,240L496,256L480,256L480,240L464,240L464,256L464,272L464,288L448,288L448,272L448,256L448,240L432,240L416,240L400,240L400,256L384,256L384,240L384,224L400,224L400,208L384,208L368,208L368,192L384,192L400,192L400,176L416,176L416,160L400,160L400,176L384,176L384,160L384,144L400,144L416,144L432,144L432,128L416,128L400,128L400,112L416,112L432,112L432,96L416,96L400,96L384,96L368,96L368,80L368,64M368,256L384,256L384,272L368,272L368,256M416,464L432,464L432,480L416,480L416,464M448,128L448,144L464,144L464,128L448,128M432,448L448,448L448,464L432,464L432,448M432,608L448,608L464,608L480,608L496,608L496,624L496,640L496,656L480,656L480,640L480,624L464,624L448,624L448,640L432,640L432,624L432,608M448,320L464,320L480,320L480,336L464,336L464,352L448,352L448,336L448,320M448,416L464,416L464,432L448,432L448,416M448,464L464,464L464,480L448,480L448,464M448,496L464,496L464,512L480,512L480,496L496,496L512,496L512,512L496,512L496,528L480,528L480,544L464,544L464,528L448,528L448,512L448,496M448,640L464,640L464,656L448,656L448,640M464,288L480,288L480,304L464,304L464,288M464,352L480,352L480,368L464,368L464,352M464,384L480,384L480,368L496,368L496,384L496,400L480,400L464,400L464,384M464,448L480,448L480,432L496,432L496,416L496,400L512,400L528,400L528,416L512,416L512,432L512,448L496,448L496,464L496,480L480,480L480,464L464,464L464,448M464,480L480,480L480,496L464,496L464,480M480,96L496,96L496,112L480,112L480,96M496,112L512,112L512,96L512,80L528,80L528,96L528,112L528,128L512,128L496,128L496,112M496,256L512,256L528,256L528,272L544,272L544,288L528,288L512,288L512,304L512,320L512,336L512,352L512,368L496,368L496,352L496,336L496,320L496,304L496,288L496,272L496,256M512,368L528,368L528,384L512,384L512,368M512,448L528,448L528,432L544,432L544,416L560,416L560,432L576,432L576,448L592,448L592,464L576,464L560,464L560,480L560,496L544,496L544,480L528,480L512,480L512,464L512,448M528,528L528,544L528,560L528,576L544,576L560,576L576,576L576,560L576,544L576,528L560,528L544,528L528,528M512,624L528,624L528,608L544,608L544,624L544,640L528,640L528,656L512,656L512,640L512,624M528,304L544,304L544,320L560,320L560,336L544,336L528,336L528,320L528,304M528,352L544,352L560,352L560,336L576,336L576,352L576,368L592,368L592,352L592,336L608,336L608,320L592,320L592,336L576,336L576,320L576,304L592,304L592,288L608,288L608,304L624,304L624,320L640,320L640,304L624,304L624,288L640,288L656,288L656,304L656,320L656,336L640,336L624,336L624,352L624,368L608,368L608,384L592,384L592,400L592,416L576,416L560,416L560,400L544,400L528,400L528,384L544,384L560,384L560,368L544,368L528,368L528,352M544,192L560,192L560,208L576,208L576,224L560,224L560,240L576,240L576,224L592,224L592,208L608,208L608,192L624,192L624,208L624,224L608,224L608,240L608,256L608,272L592,272L592,256L576,256L560,256L560,272L544,272L544,256L544,240L544,224L544,208L544,192M544,288L560,288L560,304L544,304L544,288M544,544L560,544L560,560L544,560L544,544M560,272L576,272L576,288L560,288L560,272M576,192L592,192L592,208L576,208L576,192M592,432L608,432L608,448L592,448L592,432M592,640L608,640L608,656L592,656L592,640M608,272L624,272L624,288L608,288L608,272M608,384L624,384L640,384L640,368L640,352L656,352L656,368L656,384L656,400L640,400L640,416L656,416L656,432L656,448L640,448L640,432L624,432L608,432L608,416L608,400L608,384M608,576L624,576L624,592L608,592L608,576M624,224L640,224L656,224L656,240L640,240L624,240L624,224M624,256L640,256L656,256L656,272L640,272L624,272L624,256M624,528L640,528L640,544L624,544L624,528M624,560L640,560L640,544L656,544L656,560L656,576L640,576L624,576L624,560M640,192L656,192L656,208L640,208L640,192M640,608L656,608L656,624L656,640L656,656L640,656L640,640L640,624L640,608Z" />
</g>
<g id='corners-outer-1' style='fill:#2a5bd7' >
<path d="M64,64L80,64L96,64L112,64L128,64L144,64L160,64L176,64L176,80L176,96L176,112L176,128L176,144L176,160L176,176L160,176L144,176L128,176L112,176L96,176L80,176L64,176L64,160L64,144L64,128L64,112L64,96L64,80L64,64M80,80L80,96L80,112L80,128L80,144L80,160L96,160L112,160L128,160L144,160L160,160L160,144L160,128L160,112L160,96L160,80L144,80L128,80L112,80L96,80L80,80Z" />
</g>
<g id='corners-outer-2' style='fill:#2a5bd7' >
<path d="M544,64L560,64L576,64L592,64L608,64L624,64L640,64L656,64L656,80L656,96L656,112L656,128L656,144L656,160L656,176L640,176L624,176L608,176L592,176L576,176L560,176L544,176L544,160L544,144L544,128L544,112L544,96L544,80L544,64M560,80L560,96L560,112L560,128L560,144L560,160L576,160L592,160L608,160L624,160L640,160L640,144L640,128L640,112L640,96L640,80L624,80L608,80L592,80L576,80L560,80Z" />
</g>
<g id='corners-outer-3' style='fill:#2a5bd7' >
<path d="M64,544L80,544L96,544L112,544L128,544L144,544L160,544L176,544L176,560L176,576L176,592L176,608L176,624L176,640L176,656L160,656L144,656L128,656L112,656L96,656L80,656L64,656L64,640L64,624L64,608L64,592L64,576L64,560L64,544M80,560L80,576L80,592L80,608L80,624L80,640L96,640L112,640L128,640L144,640L160,640L160,624L160,608L160,592L160,576L160,560L144,560L128,560L112,560L96,560L80,560Z" />
</g>
<g id='corners-inner-1' style='fill:#2a5bd7' >
<path d="M96,96L112,96L128,96L144,96L144,112L144,128L144,144L128,144L112,144L96,144L96,128L96,112L96,96Z" />
</g>
<g id='corners-inner-2' style='fill:#2a5bd7' >
<path d="M576,96L592,96L608,96L624,96L624,112L624,128L624,144L608,144L592,144L576,144L576,128L576,112L576,96Z" />
</g>
<g id='corners-inner-3' style='fill:#2a5bd7' >
<path d="M96,576L112,576L128,576L144,576L144,592L144,608L144,624L128,624L112,624L96,624L96,608L96,592L96,576Z" />
</g>
<g id='logo-svg' style='fill:#2a5bd7' >
<g transform='translate(280 280) scale(2.86 2.86)'>
<!-- Bitly Logo © Bitly Inc. -->
<path d="M9.31878 48.9865C3.10626 42.988 0 36.1445 0 28.4561C0 12.0273 12.7429 -6.10352e-05 27.9038 -6.10352e-05C43.222 -6.10352e-05 56 12.0273 56 28.4561C56 43.9845 42.2998 55.9999 30.3344 55.9999C25.3785 55.9999 21.7986 54.1257 19.9264 51.2073C19.2638 50.1744 18.6731 48.5091 18.5538 47.5C18.4743 46.8272 18.4743 44.5948 18.5538 40.803C18.5538 38.5939 18.5538 35.7708 18.5538 32.3338C18.6243 27.2183 19.1702 20.4505 17.1419 22.0106C16.5405 22.591 16.2984 23.1945 15.0104 23.2496C13.7215 23.1556 13.359 21.7746 13.572 21.0316C14.3367 18.365 16.5852 16.2288 20.1575 16.6144C23.7298 17 25.1038 19.3651 25.1982 22.558C25.1982 26.4187 25.1038 30.6312 25.1038 31.1207V31.5341C25.1214 31.9177 25.0658 32.228 25.5175 31.9709C25.9795 31.6568 26.378 31.3845 26.7129 31.1542C29.158 29.3012 35.1582 27.3465 39.8148 31.9709C41.5869 33.7308 43.7689 37.552 42.4984 43.4485C42.2943 44.0664 42.4578 44.1482 42.9889 43.6939C43.4275 43.2567 49.439 37.8413 49.439 27.5934C49.439 16.106 39.3669 6.51595 27.9038 6.51595C17.915 6.51595 6.4838 14.4679 6.4838 28.4561C6.4838 32.802 8.0413 38.1773 11.8543 42.3753C12.4772 43.0908 12.9493 43.5933 13.2706 43.8829C15.0104 45.3792 15.2394 47.2625 14.0834 48.631C12.5973 50.1303 11.0092 50.2488 9.31878 48.9865ZM30.4069 49.6219C35.5961 49.5381 36.433 44.1463 36.4609 41.1012C36.4609 36.6034 34.1732 35.011 30.7417 35.7094C27.9798 36.2682 25.1899 39.1456 24.8831 43.1406C24.8273 43.8111 24.7994 44.9006 24.8552 45.9342C24.9946 48.672 27.2823 49.6778 30.4069 49.6219Z" />
</g></g>
</svg>
